<svg width="706" height="745" viewBox="0 0 706 745" fill="none" xmlns="http://www.w3.org/2000/svg">
<path d="M703.724 111.614C703.724 104.687 698.761 98.3796 692.526 95.374L530.326 17.5247C525.389 15.1444 519.389 15.1392 514.452 17.5142L352.532 95.2022C352.105 95.4002 351.849 95.6606 351.558 95.9002C351.277 96.0564 352.141 96.1241 351.886 96.296C346.631 99.5929 344.62 105.353 344.62 111.551V285.617C344.62 292.534 347.37 298.847 353.605 301.847L514.738 379.711C517.207 380.898 519.577 381.476 522.243 381.476C524.795 381.476 527.134 380.773 529.504 379.695C529.644 379.695 529.686 379.778 529.821 379.711L693.501 301.847C699.731 298.842 705.647 292.534 705.647 285.617V112.031C705.647 111.89 703.731 111.77 703.731 111.619L703.724 111.614ZM521.938 169.307L482.662 150.395L602.859 92.6713L642.094 111.562L616.23 124.026L521.938 169.307ZM521.985 53.7447L561.282 72.6713L441.099 130.39L401.787 111.463L521.985 53.7447ZM377.438 140.218L500.517 200.749V334.802L377.438 274.291V140.218ZM541.545 334.805V200.751L635.971 156.631L672.826 140.262V274.289L541.545 334.805Z" fill="url(#paint0_linear_15_108)"/>
<path d="M470.538 210.537L422.792 187.563C413.818 183.24 403.058 187.032 398.746 195.996C394.428 204.954 398.22 215.714 407.178 220.026L454.923 243C457.434 244.208 460.1 244.781 462.72 244.781C469.418 244.781 475.866 241.02 478.96 234.567C483.283 225.604 479.506 214.843 470.538 210.537Z" fill="url(#paint1_linear_15_108)"/>
<path d="M570.258 390.123C560.289 390.123 549.747 398.181 549.747 408.134V668.721C549.747 690.314 531.883 711.47 510.304 711.47H32.8243V112.497H123.079V169.934H285.359C295.312 169.934 303.37 163.476 303.37 153.522C303.37 143.579 295.312 137.11 285.359 137.11L164.104 137.115V71.4699H219.078L224.025 64.8344C233.255 46.1411 251.744 36.2411 272.296 36.2411C292.859 36.2411 311.353 48.6941 320.577 67.3864C324.968 76.2875 335.749 80.3812 344.703 75.9853C353.619 71.5791 357.281 60.9853 352.875 52.068C337.541 20.9947 306.672 0 272.301 0C241.807 0.010416 214.056 14.036 197.484 38.6507H123.077V79.6773H18.8067C8.85359 79.6773 0 90.62 0 100.568V725.875C0 735.838 8.85413 744.296 18.8067 744.296H510.313C551.756 744.296 590.772 710.171 590.772 668.717V408.131C590.772 398.183 580.21 390.125 570.256 390.125L570.258 390.123Z" fill="url(#paint2_linear_15_108)"/>
<path d="M210.844 343.097L182.975 320.279L136.278 377.306L125.57 361.765L95.9082 382.218L133.826 437.213L210.844 343.097Z" fill="url(#paint3_linear_15_108)"/>
<path d="M133.818 548.177L210.839 454.031L182.97 431.209L136.282 488.271L125.563 472.703L95.9016 493.151L133.818 548.177Z" fill="url(#paint4_linear_15_108)"/>
<path d="M133.831 659.123L210.858 564.941L182.962 542.134L136.274 599.197L125.565 583.675L95.9041 604.123L133.831 659.123Z" fill="url(#paint5_linear_15_108)"/>
<path d="M246.164 391.47H402.058V424.293H246.164V391.47Z" fill="url(#paint6_linear_15_108)"/>
<path d="M246.164 481.737H475.911V530.966H246.164V481.737Z" fill="url(#paint7_linear_15_108)"/>
<path d="M246.164 596.603H475.911V629.426H246.164V596.603Z" fill="url(#paint8_linear_15_108)"/>
<defs>
<linearGradient id="paint0_linear_15_108" x1="525.134" y1="15.7362" x2="525.134" y2="381.476" gradientUnits="userSpaceOnUse">
<stop offset="0.171875" stop-color="#088F8F"/>
<stop offset="1" stop-color="#50C878"/>
</linearGradient>
<linearGradient id="paint1_linear_15_108" x1="438.856" y1="185.776" x2="438.856" y2="244.781" gradientUnits="userSpaceOnUse">
<stop offset="0.171875" stop-color="#088F8F"/>
<stop offset="1" stop-color="#50C878"/>
</linearGradient>
<linearGradient id="paint2_linear_15_108" x1="295.386" y1="0" x2="295.386" y2="744.296" gradientUnits="userSpaceOnUse">
<stop offset="0.171875" stop-color="#088F8F"/>
<stop offset="1" stop-color="#50C878"/>
</linearGradient>
<linearGradient id="paint3_linear_15_108" x1="153.376" y1="320.279" x2="153.376" y2="437.213" gradientUnits="userSpaceOnUse">
<stop offset="0.171875" stop-color="#088F8F"/>
<stop offset="1" stop-color="#50C878"/>
</linearGradient>
<linearGradient id="paint4_linear_15_108" x1="153.37" y1="431.209" x2="153.37" y2="548.177" gradientUnits="userSpaceOnUse">
<stop offset="0.171875" stop-color="#088F8F"/>
<stop offset="1" stop-color="#50C878"/>
</linearGradient>
<linearGradient id="paint5_linear_15_108" x1="153.381" y1="542.134" x2="153.381" y2="659.123" gradientUnits="userSpaceOnUse">
<stop offset="0.171875" stop-color="#088F8F"/>
<stop offset="1" stop-color="#50C878"/>
</linearGradient>
<linearGradient id="paint6_linear_15_108" x1="324.111" y1="391.47" x2="324.111" y2="424.293" gradientUnits="userSpaceOnUse">
<stop offset="0.171875" stop-color="#088F8F"/>
<stop offset="1" stop-color="#50C878"/>
</linearGradient>
<linearGradient id="paint7_linear_15_108" x1="361.038" y1="481.737" x2="361.038" y2="530.966" gradientUnits="userSpaceOnUse">
<stop offset="0.171875" stop-color="#088F8F"/>
<stop offset="1" stop-color="#50C878"/>
</linearGradient>
<linearGradient id="paint8_linear_15_108" x1="361.038" y1="596.603" x2="361.038" y2="629.426" gradientUnits="userSpaceOnUse">
<stop offset="0.171875" stop-color="#088F8F"/>
<stop offset="1" stop-color="#50C878"/>
</linearGradient>
</defs>
</svg>
